<svg id="circle" xmlns="http://www.w3.org/2000/svg" viewBox="0 0 408 408">
  <defs>

    <filter id="sofGlow">

      <!-- Use a gaussian blur to create the soft blurriness of the glow -->
      <feGaussianBlur in="thicken" stdDeviation="5" result="blurred" />

      <!-- Change the colour -->
      <feFlood flood-color="rgb(255,255,255)" result="glowColor" />

      <!-- Color in the glows -->
      <feComposite in="glowColor" in2="blurred" operator="in" result="softGlow_colored" />

      <!--	Layer the effects together -->
      <feMerge>
        <feMergeNode in="softGlow_colored"/>
        <feMergeNode in="SourceGraphic"/>
      </feMerge>

    </filter>

  </defs>
  <circle cx="387" cy="99" r="9" fill="#fff"/>
  <circle cx="387" cy="310" r="9" fill="#fff"/>
  <circle cx="20" cy="310" r="9" fill="#fff"/>
  <circle cx="20" cy="99" r="9" fill="#fff"/>
  <g id="circle-2" data-name="circle">
    <path d="M27,224a194.8,194.8,0,0,1,15.4-76.3q3.4-8.1,7.5-15.7h-9a204.3,204.3,0,0,0,1,186H51a195.1,195.1,0,0,1-24-94Z" transform="translate(-19 -20)" fill="#fff"/>
    <path d="M361.6,362.6A196.1,196.1,0,0,1,55.8,326.3l-4.7,7.6a204,204,0,0,0,343.1,1l-4.5-7.8A196.2,196.2,0,0,1,361.6,362.6Z" transform="translate(-19 -20)" fill="#fff"/>
    <path d="M223,20A203.8,203.8,0,0,0,51.1,114.1l5.1,6.8a196.1,196.1,0,0,1,333.8.4l4.6-7.7A203.8,203.8,0,0,0,223,20Z" transform="translate(-19 -20)" fill="#fff"/>
    <path d="M405.1,132h-9q4.1,7.7,7.5,15.7A195.8,195.8,0,0,1,395,318h9.1a204.3,204.3,0,0,0,1-186Z" transform="translate(-19 -20)" fill="#fff"/>
  </g>
  <path id="left" d="M50,318a196.5,196.5,0,0,1-8.6-170.3q3.4-8.1,7.5-15.7" transform="translate(-19 -20)" fill="none" stroke="#cf7532" stroke-linejoin="round" stroke-width="2"/>
  <path id="bottom" d="M389.7,328.2a196.1,196.1,0,0,1-333.9-.8" transform="translate(-19 -20)" fill="none" stroke="#cf7532" stroke-linejoin="round" stroke-width="2"/>
  <path id="top" d="M56.2,120a196.1,196.1,0,0,1,333.8.4" transform="translate(-19 -20)" fill="none" stroke="#cf7532" stroke-linejoin="round" stroke-width="2"/>
  <path id="right" d="M397.1,132q4.1,7.7,7.5,15.7A195.8,195.8,0,0,1,396,318" transform="translate(-19 -20)" fill="none" stroke="#cf7532" stroke-linejoin="round" stroke-width="2"/>
</svg>
